<?xml version="1.0" encoding="iso-8859-1"?>
<!-- Generator: Adobe Illustrator 18.0.0, SVG Export Plug-In . SVG Version: 6.00 Build 0)  -->
<!DOCTYPE svg PUBLIC "-//W3C//DTD SVG 1.1//EN" "http://www.w3.org/Graphics/SVG/1.1/DTD/svg11.dtd">
<svg fill="#fff" version="1.1" id="Capa_1" xmlns="http://www.w3.org/2000/svg" xmlns:xlink="http://www.w3.org/1999/xlink" x="0px" y="0px" viewBox="0 0 470.113 470.113" style="enable-background:new 0 0 470.113 470.113;" xml:space="preserve">
	<polygon points="92.861,0 65.459,55.53 4.182,64.433 48.513,107.655 38.055,168.683 92.861,139.863 147.667,168.683 
		137.207,107.655 181.538,64.433 120.263,55.53 	"/>
	<polygon points="362.143,321.74 326.207,248.92 290.27,321.74 209.926,333.416 268.059,390.085 254.335,470.113 326.207,432.321 
		398.081,470.113 384.354,390.085 442.488,333.416 	"/>
	<polygon points="416.534,111.945 432.183,73.829 465.931,50.185 427.823,34.527 404.164,0.786 388.514,38.901 354.766,62.546 
		392.874,78.204 	"/>
	<polygon points="99.19,218.814 90.549,249.466 66.735,270.601 97.374,279.249 118.522,303.071 127.18,272.417 150.977,251.285 
		120.34,242.635 	"/>
	<polygon points="78.982,329.187 64.626,372.763 21.049,387.128 64.626,401.482 78.982,445.059 93.353,401.482 136.929,387.128 
		93.353,372.763 	"/>
	<polygon points="247.45,213.138 286.405,188.908 329.057,205.844 304.827,166.873 321.755,124.229 282.801,148.458 
		240.149,131.522 264.377,170.493 "/>
</svg>
